<mxfile host="Electron" agent="Mozilla/5.0 (Windows NT 10.0; Win64; x64) AppleWebKit/537.36 (KHTML, like Gecko) draw.io/28.1.2 Chrome/138.0.7204.243 Electron/37.4.0 Safari/537.36" version="28.1.2">
  <diagram name="Faculty Portal Use Cases" id="faculty-portal">
    <mxGraphModel dx="1337" dy="1182" grid="1" gridSize="10" guides="1" tooltips="1" connect="1" arrows="1" fold="1" page="1" pageScale="1" pageWidth="1169" pageHeight="827" background="#ffffff" math="0" shadow="0">
      <root>
        <mxCell id="0" />
        <mxCell id="1" parent="0" />
        <mxCell id="faculty-boundary" value="Faculty Portal System" style="rounded=0;whiteSpace=wrap;html=1;fillColor=none;verticalAlign=top;fontSize=16;fontStyle=1;dashed=1;strokeColor=#000000;fontColor=#0B0B0B;" parent="1" vertex="1">
          <mxGeometry x="200" y="40" width="800" height="720" as="geometry" />
        </mxCell>
        <mxCell id="faculty-actor" value="Faculty" style="shape=umlActor;verticalLabelPosition=bottom;verticalAlign=top;html=1;fillColor=#FFFFFF;strokeColor=#000000;fontColor=#0B0B0B;" parent="1" vertex="1">
          <mxGeometry x="80" y="360" width="60" height="120" as="geometry" />
        </mxCell>
        <mxCell id="fuc-login" value="Login/Logout" style="ellipse;whiteSpace=wrap;html=1;fillColor=#FFFFFF;strokeColor=#000000;fontColor=#0B0B0B;" parent="1" vertex="1">
          <mxGeometry x="280" y="80" width="140" height="70" as="geometry" />
        </mxCell>
        <mxCell id="fuc-create-course" value="Create Course&#xa;Offerings" style="ellipse;whiteSpace=wrap;html=1;fillColor=#FFFFFF;strokeColor=#000000;fontColor=#0B0B0B;" parent="1" vertex="1">
          <mxGeometry x="280" y="180" width="140" height="70" as="geometry" />
        </mxCell>
        <mxCell id="fuc-set-schedule" value="Set Schedule&#xa;&amp;amp; Capacity" style="ellipse;whiteSpace=wrap;html=1;fillColor=#FFFFFF;strokeColor=#000000;fontColor=#0B0B0B;" parent="1" vertex="1">
          <mxGeometry x="480" y="140" width="120" height="60" as="geometry" />
        </mxCell>
        <mxCell id="fuc-prerequisites" value="Define&#xa;Prerequisites" style="ellipse;whiteSpace=wrap;html=1;fillColor=#FFFFFF;strokeColor=#000000;fontColor=#0B0B0B;" parent="1" vertex="1">
          <mxGeometry x="480" y="220" width="120" height="60" as="geometry" />
        </mxCell>
        <mxCell id="fuc-modify-course" value="Modify Course&#xa;Details" style="ellipse;whiteSpace=wrap;html=1;fillColor=#FFFFFF;strokeColor=#000000;fontColor=#0B0B0B;" parent="1" vertex="1">
          <mxGeometry x="650" y="180" width="120" height="60" as="geometry" />
        </mxCell>
        <mxCell id="fuc-rosters" value="Manage Course&#xa;Rosters" style="ellipse;whiteSpace=wrap;html=1;fillColor=#FFFFFF;strokeColor=#000000;fontColor=#0B0B0B;" parent="1" vertex="1">
          <mxGeometry x="280" y="280" width="140" height="70" as="geometry" />
        </mxCell>
        <mxCell id="fuc-view-enrolled" value="View Enrolled&#xa;Students" style="ellipse;whiteSpace=wrap;html=1;fillColor=#FFFFFF;strokeColor=#000000;fontColor=#0B0B0B;" parent="1" vertex="1">
          <mxGeometry x="480" y="295" width="120" height="60" as="geometry" />
        </mxCell>
        <mxCell id="fuc-materials" value="Post Course&#xa;Materials" style="ellipse;whiteSpace=wrap;html=1;fillColor=#FFFFFF;strokeColor=#000000;fontColor=#0B0B0B;" parent="1" vertex="1">
          <mxGeometry x="280" y="380" width="140" height="70" as="geometry" />
        </mxCell>
        <mxCell id="fuc-syllabus" value="Post Syllabus" style="ellipse;whiteSpace=wrap;html=1;fillColor=#FFFFFF;strokeColor=#000000;fontColor=#0B0B0B;" parent="1" vertex="1">
          <mxGeometry x="480" y="370" width="120" height="60" as="geometry" />
        </mxCell>
        <mxCell id="fuc-announcements" value="Post&#xa;Announcements" style="ellipse;whiteSpace=wrap;html=1;fillColor=#FFFFFF;strokeColor=#000000;fontColor=#0B0B0B;" parent="1" vertex="1">
          <mxGeometry x="480" y="445" width="120" height="60" as="geometry" />
        </mxCell>
        <mxCell id="fuc-enter-grades" value="Enter Grades" style="ellipse;whiteSpace=wrap;html=1;fillColor=#FFFFFF;strokeColor=#000000;fontColor=#0B0B0B;" parent="1" vertex="1">
          <mxGeometry x="520" y="530" width="140" height="70" as="geometry" />
        </mxCell>
        <mxCell id="fuc-assign-grades" value="Enter Assignment&#xa;Grades" style="ellipse;whiteSpace=wrap;html=1;fillColor=#FFFFFF;strokeColor=#000000;fontColor=#0B0B0B;" parent="1" vertex="1">
          <mxGeometry x="710" y="510" width="130" height="60" as="geometry" />
        </mxCell>
        <mxCell id="fuc-exam-grades" value="Enter Exam&#xa;Grades" style="ellipse;whiteSpace=wrap;html=1;fillColor=#FFFFFF;strokeColor=#000000;fontColor=#0B0B0B;" parent="1" vertex="1">
          <mxGeometry x="710" y="585" width="130" height="60" as="geometry" />
        </mxCell>
        <mxCell id="fuc-final-grades" value="Submit Final&#xa;Grades" style="ellipse;whiteSpace=wrap;html=1;fillColor=#FFFFFF;strokeColor=#000000;fontColor=#0B0B0B;" parent="1" vertex="1">
          <mxGeometry x="520" y="630" width="140" height="70" as="geometry" />
        </mxCell>
        <mxCell id="fuc-calculate-gpa" value="Trigger GPA&#xa;Calculation" style="ellipse;whiteSpace=wrap;html=1;fillColor=#FFFFFF;strokeColor=#000000;fontColor=#0B0B0B;" parent="1" vertex="1">
          <mxGeometry x="720" y="675" width="120" height="60" as="geometry" />
        </mxCell>
        <mxCell id="fuc-student-profiles" value="View Student&#xa;Profiles" style="ellipse;whiteSpace=wrap;html=1;fillColor=#FFFFFF;strokeColor=#000000;fontColor=#0B0B0B;" parent="1" vertex="1">
          <mxGeometry x="280" y="480" width="140" height="70" as="geometry" />
        </mxCell>
        <mxCell id="fuc-academic-history" value="View Academic&#xa;History" style="ellipse;whiteSpace=wrap;html=1;fillColor=#FFFFFF;strokeColor=#000000;fontColor=#0B0B0B;" parent="1" vertex="1">
          <mxGeometry x="290" y="570" width="120" height="60" as="geometry" />
        </mxCell>
        <mxCell id="fuc-communicate" value="Communicate&#xa;with Students" style="ellipse;whiteSpace=wrap;html=1;fillColor=#FFFFFF;strokeColor=#000000;fontColor=#0B0B0B;" parent="1" vertex="1">
          <mxGeometry x="750" y="280" width="140" height="70" as="geometry" />
        </mxCell>
        <mxCell id="fuc-send-messages" value="Send Individual&#xa;Messages" style="ellipse;whiteSpace=wrap;html=1;fillColor=#FFFFFF;strokeColor=#000000;fontColor=#0B0B0B;" parent="1" vertex="1">
          <mxGeometry x="860" y="215" width="120" height="60" as="geometry" />
        </mxCell>
        <mxCell id="fuc-class-announce" value="Send Class&#xa;Announcements" style="ellipse;whiteSpace=wrap;html=1;fillColor=#FFFFFF;strokeColor=#000000;fontColor=#0B0B0B;" parent="1" vertex="1">
          <mxGeometry x="860" y="290" width="120" height="60" as="geometry" />
        </mxCell>
        <mxCell id="fuc-attendance" value="Track&#xa;Attendance" style="ellipse;whiteSpace=wrap;html=1;fillColor=#FFFFFF;strokeColor=#000000;fontColor=#0B0B0B;" parent="1" vertex="1">
          <mxGeometry x="750" y="380" width="140" height="70" as="geometry" />
        </mxCell>
        <mxCell id="fuc-record-attendance" value="Record Session&#xa;Attendance" style="ellipse;whiteSpace=wrap;html=1;fillColor=#FFFFFF;strokeColor=#000000;fontColor=#0B0B0B;" parent="1" vertex="1">
          <mxGeometry x="860" y="370" width="120" height="60" as="geometry" />
        </mxCell>
        <mxCell id="fuc-attendance-reports" value="View Attendance&#xa;Reports" style="ellipse;whiteSpace=wrap;html=1;fillColor=#FFFFFF;strokeColor=#000000;fontColor=#0B0B0B;" parent="1" vertex="1">
          <mxGeometry x="860" y="445" width="120" height="60" as="geometry" />
        </mxCell>
        <mxCell id="fassoc1" value="" style="endArrow=none;html=1;exitX=1;exitY=0.3;exitDx=0;exitDy=0;exitPerimeter=0;entryX=0;entryY=0.5;entryDx=0;entryDy=0;strokeColor=#000000;fontColor=#0B0B0B;" parent="1" source="faculty-actor" target="fuc-login" edge="1">
          <mxGeometry width="50" height="50" relative="1" as="geometry">
            <mxPoint x="400" y="450" as="sourcePoint" />
            <mxPoint x="450" y="400" as="targetPoint" />
          </mxGeometry>
        </mxCell>
        <mxCell id="fassoc2" value="" style="endArrow=none;html=1;exitX=1;exitY=0.3;exitDx=0;exitDy=0;exitPerimeter=0;entryX=0;entryY=0.5;entryDx=0;entryDy=0;strokeColor=#000000;fontColor=#0B0B0B;" parent="1" source="faculty-actor" target="fuc-create-course" edge="1">
          <mxGeometry width="50" height="50" relative="1" as="geometry">
            <mxPoint x="400" y="450" as="sourcePoint" />
            <mxPoint x="450" y="400" as="targetPoint" />
          </mxGeometry>
        </mxCell>
        <mxCell id="fassoc3" value="" style="endArrow=none;html=1;exitX=1;exitY=0.3;exitDx=0;exitDy=0;exitPerimeter=0;entryX=0;entryY=0.5;entryDx=0;entryDy=0;strokeColor=#000000;fontColor=#0B0B0B;" parent="1" source="faculty-actor" target="fuc-rosters" edge="1">
          <mxGeometry width="50" height="50" relative="1" as="geometry">
            <mxPoint x="400" y="450" as="sourcePoint" />
            <mxPoint x="450" y="400" as="targetPoint" />
          </mxGeometry>
        </mxCell>
        <mxCell id="fassoc4" value="" style="endArrow=none;html=1;exitX=1;exitY=0.3;exitDx=0;exitDy=0;exitPerimeter=0;entryX=0;entryY=0.5;entryDx=0;entryDy=0;strokeColor=#000000;fontColor=#0B0B0B;" parent="1" source="faculty-actor" target="fuc-materials" edge="1">
          <mxGeometry width="50" height="50" relative="1" as="geometry">
            <mxPoint x="400" y="450" as="sourcePoint" />
            <mxPoint x="450" y="400" as="targetPoint" />
          </mxGeometry>
        </mxCell>
        <mxCell id="fassoc5" value="" style="endArrow=none;html=1;exitX=1;exitY=0.3;exitDx=0;exitDy=0;exitPerimeter=0;entryX=0;entryY=0.5;entryDx=0;entryDy=0;strokeColor=#000000;fontColor=#0B0B0B;" parent="1" source="faculty-actor" target="fuc-enter-grades" edge="1">
          <mxGeometry width="50" height="50" relative="1" as="geometry">
            <mxPoint x="400" y="450" as="sourcePoint" />
            <mxPoint x="450" y="400" as="targetPoint" />
          </mxGeometry>
        </mxCell>
        <mxCell id="fassoc6" value="" style="endArrow=none;html=1;exitX=1;exitY=0.3;exitDx=0;exitDy=0;exitPerimeter=0;entryX=0;entryY=0.5;entryDx=0;entryDy=0;strokeColor=#000000;fontColor=#0B0B0B;" parent="1" source="faculty-actor" target="fuc-final-grades" edge="1">
          <mxGeometry width="50" height="50" relative="1" as="geometry">
            <mxPoint x="400" y="450" as="sourcePoint" />
            <mxPoint x="450" y="400" as="targetPoint" />
          </mxGeometry>
        </mxCell>
        <mxCell id="fassoc7" value="" style="endArrow=none;html=1;exitX=1;exitY=0.3;exitDx=0;exitDy=0;exitPerimeter=0;entryX=0;entryY=0.5;entryDx=0;entryDy=0;strokeColor=#000000;fontColor=#0B0B0B;" parent="1" source="faculty-actor" target="fuc-student-profiles" edge="1">
          <mxGeometry width="50" height="50" relative="1" as="geometry">
            <mxPoint x="400" y="450" as="sourcePoint" />
            <mxPoint x="450" y="400" as="targetPoint" />
          </mxGeometry>
        </mxCell>
        <mxCell id="fassoc8" value="" style="endArrow=none;html=1;exitX=1;exitY=0.3;exitDx=0;exitDy=0;exitPerimeter=0;entryX=0;entryY=0.5;entryDx=0;entryDy=0;strokeColor=#000000;fontColor=#0B0B0B;" parent="1" source="faculty-actor" target="fuc-communicate" edge="1">
          <mxGeometry width="50" height="50" relative="1" as="geometry">
            <mxPoint x="400" y="450" as="sourcePoint" />
            <mxPoint x="450" y="400" as="targetPoint" />
          </mxGeometry>
        </mxCell>
        <mxCell id="fassoc9" value="" style="endArrow=none;html=1;exitX=1;exitY=0.3;exitDx=0;exitDy=0;exitPerimeter=0;entryX=0;entryY=0.5;entryDx=0;entryDy=0;strokeColor=#000000;fontColor=#0B0B0B;" parent="1" source="faculty-actor" target="fuc-attendance" edge="1">
          <mxGeometry width="50" height="50" relative="1" as="geometry">
            <mxPoint x="400" y="450" as="sourcePoint" />
            <mxPoint x="450" y="400" as="targetPoint" />
          </mxGeometry>
        </mxCell>
        <mxCell id="finclude1" value="&amp;lt;&amp;lt;include&amp;gt;&amp;gt;" style="endArrow=open;endSize=12;dashed=1;html=1;exitX=0.5;exitY=0;exitDx=0;exitDy=0;entryX=0.5;entryY=1;entryDx=0;entryDy=0;strokeColor=#000000;fontColor=#FFFFFF;" parent="1" source="fuc-create-course" target="fuc-login" edge="1">
          <mxGeometry width="160" relative="1" as="geometry">
            <mxPoint x="400" y="450" as="sourcePoint" />
            <mxPoint x="560" y="450" as="targetPoint" />
          </mxGeometry>
        </mxCell>
        <mxCell id="finclude2" value="&amp;lt;&amp;lt;include&amp;gt;&amp;gt;" style="endArrow=open;endSize=12;dashed=1;html=1;exitX=1;exitY=0;exitDx=0;exitDy=0;entryX=0;entryY=0.5;entryDx=0;entryDy=0;strokeColor=#000000;fontColor=#FFFFFF;" parent="1" source="fuc-create-course" target="fuc-set-schedule" edge="1">
          <mxGeometry width="160" relative="1" as="geometry">
            <mxPoint x="400" y="450" as="sourcePoint" />
            <mxPoint x="560" y="450" as="targetPoint" />
          </mxGeometry>
        </mxCell>
        <mxCell id="finclude3" value="&amp;lt;&amp;lt;include&amp;gt;&amp;gt;" style="endArrow=open;endSize=12;dashed=1;html=1;exitX=1;exitY=0.5;exitDx=0;exitDy=0;entryX=0;entryY=0.5;entryDx=0;entryDy=0;strokeColor=#000000;fontColor=#FFFFFF;textShadow=1;" parent="1" source="fuc-create-course" target="fuc-prerequisites" edge="1">
          <mxGeometry width="160" relative="1" as="geometry">
            <mxPoint x="400" y="450" as="sourcePoint" />
            <mxPoint x="560" y="450" as="targetPoint" />
          </mxGeometry>
        </mxCell>
        <mxCell id="finclude4" value="&amp;lt;&amp;lt;include&amp;gt;&amp;gt;" style="endArrow=open;endSize=12;dashed=1;html=1;exitX=1;exitY=0.5;exitDx=0;exitDy=0;entryX=0;entryY=0.5;entryDx=0;entryDy=0;strokeColor=#000000;fontColor=#FFFFFF;" parent="1" source="fuc-rosters" target="fuc-view-enrolled" edge="1">
          <mxGeometry width="160" relative="1" as="geometry">
            <mxPoint x="400" y="450" as="sourcePoint" />
            <mxPoint x="560" y="450" as="targetPoint" />
          </mxGeometry>
        </mxCell>
        <mxCell id="finclude5" value="&amp;lt;&amp;lt;include&amp;gt;&amp;gt;" style="endArrow=open;endSize=12;dashed=1;html=1;exitX=1;exitY=0;exitDx=0;exitDy=0;entryX=0;entryY=0.5;entryDx=0;entryDy=0;strokeColor=#000000;fontColor=#FFFFFF;" parent="1" source="fuc-materials" target="fuc-syllabus" edge="1">
          <mxGeometry width="160" relative="1" as="geometry">
            <mxPoint x="400" y="450" as="sourcePoint" />
            <mxPoint x="560" y="450" as="targetPoint" />
          </mxGeometry>
        </mxCell>
        <mxCell id="finclude6" value="&amp;lt;&amp;lt;include&amp;gt;&amp;gt;" style="endArrow=open;endSize=12;dashed=1;html=1;exitX=1;exitY=1;exitDx=0;exitDy=0;entryX=0;entryY=0.5;entryDx=0;entryDy=0;strokeColor=#000000;fontColor=#FFFFFF;" parent="1" source="fuc-materials" target="fuc-announcements" edge="1">
          <mxGeometry x="-0.0044" width="160" relative="1" as="geometry">
            <mxPoint x="400" y="450" as="sourcePoint" />
            <mxPoint x="560" y="450" as="targetPoint" />
            <mxPoint as="offset" />
          </mxGeometry>
        </mxCell>
        <mxCell id="finclude7" value="&amp;lt;&amp;lt;include&amp;gt;&amp;gt;" style="endArrow=open;endSize=12;dashed=1;html=1;exitX=1;exitY=0;exitDx=0;exitDy=0;entryX=0;entryY=0.5;entryDx=0;entryDy=0;strokeColor=#000000;fontColor=#FFFFFF;" parent="1" source="fuc-enter-grades" target="fuc-assign-grades" edge="1">
          <mxGeometry width="160" relative="1" as="geometry">
            <mxPoint x="400" y="450" as="sourcePoint" />
            <mxPoint x="560" y="450" as="targetPoint" />
          </mxGeometry>
        </mxCell>
        <mxCell id="finclude8" value="&amp;lt;&amp;lt;include&amp;gt;&amp;gt;" style="endArrow=open;endSize=12;dashed=1;html=1;exitX=1;exitY=1;exitDx=0;exitDy=0;entryX=0;entryY=0.5;entryDx=0;entryDy=0;strokeColor=#000000;fontColor=#FFFFFF;" parent="1" source="fuc-enter-grades" target="fuc-exam-grades" edge="1">
          <mxGeometry width="160" relative="1" as="geometry">
            <mxPoint x="400" y="450" as="sourcePoint" />
            <mxPoint x="560" y="450" as="targetPoint" />
          </mxGeometry>
        </mxCell>
        <mxCell id="finclude9" value="&amp;lt;&amp;lt;include&amp;gt;&amp;gt;" style="endArrow=open;endSize=12;dashed=1;html=1;exitX=1;exitY=0.5;exitDx=0;exitDy=0;entryX=0;entryY=0;entryDx=0;entryDy=0;strokeColor=#000000;fontColor=#FFFFFF;" parent="1" source="fuc-communicate" target="fuc-send-messages" edge="1">
          <mxGeometry width="160" relative="1" as="geometry">
            <mxPoint x="400" y="450" as="sourcePoint" />
            <mxPoint x="560" y="450" as="targetPoint" />
          </mxGeometry>
        </mxCell>
        <mxCell id="finclude10" value="&amp;lt;&amp;lt;include&amp;gt;&amp;gt;" style="endArrow=open;endSize=12;dashed=1;html=1;exitX=1;exitY=0.5;exitDx=0;exitDy=0;entryX=0;entryY=0.5;entryDx=0;entryDy=0;strokeColor=#000000;fontColor=#FFFFFF;" parent="1" source="fuc-communicate" target="fuc-class-announce" edge="1">
          <mxGeometry width="160" relative="1" as="geometry">
            <mxPoint x="400" y="450" as="sourcePoint" />
            <mxPoint x="560" y="450" as="targetPoint" />
          </mxGeometry>
        </mxCell>
        <mxCell id="finclude11" value="&amp;lt;&amp;lt;include&amp;gt;&amp;gt;" style="endArrow=open;endSize=12;dashed=1;html=1;exitX=1;exitY=0;exitDx=0;exitDy=0;entryX=0;entryY=0.5;entryDx=0;entryDy=0;strokeColor=#000000;fontColor=#FFFFFF;" parent="1" source="fuc-attendance" target="fuc-record-attendance" edge="1">
          <mxGeometry width="160" relative="1" as="geometry">
            <mxPoint x="400" y="450" as="sourcePoint" />
            <mxPoint x="560" y="450" as="targetPoint" />
          </mxGeometry>
        </mxCell>
        <mxCell id="finclude12" value="&amp;lt;&amp;lt;include&amp;gt;&amp;gt;" style="endArrow=open;endSize=12;dashed=1;html=1;exitX=1;exitY=1;exitDx=0;exitDy=0;entryX=0;entryY=0.5;entryDx=0;entryDy=0;strokeColor=#000000;fontColor=#FFFFFF;" parent="1" source="fuc-attendance" target="fuc-attendance-reports" edge="1">
          <mxGeometry width="160" relative="1" as="geometry">
            <mxPoint x="400" y="450" as="sourcePoint" />
            <mxPoint x="560" y="450" as="targetPoint" />
          </mxGeometry>
        </mxCell>
        <mxCell id="fextend1" value="&amp;lt;&amp;lt;extend&amp;gt;&amp;gt;" style="endArrow=open;endSize=12;dashed=1;html=1;exitX=0;exitY=0.5;exitDx=0;exitDy=0;entryX=1;entryY=0.5;entryDx=0;entryDy=0;strokeColor=#000000;fontColor=#FFFFFF;" parent="1" source="fuc-modify-course" target="fuc-create-course" edge="1">
          <mxGeometry width="160" relative="1" as="geometry">
            <mxPoint x="400" y="450" as="sourcePoint" />
            <mxPoint x="560" y="450" as="targetPoint" />
          </mxGeometry>
        </mxCell>
        <mxCell id="fextend2" value="&amp;lt;&amp;lt;extend&amp;gt;&amp;gt;" style="endArrow=open;endSize=12;dashed=1;html=1;exitX=0;exitY=1;exitDx=0;exitDy=0;entryX=1;entryY=0.5;entryDx=0;entryDy=0;strokeColor=#000000;fontColor=#FFFFFF;" parent="1" source="fuc-academic-history" target="fuc-student-profiles" edge="1">
          <mxGeometry width="160" relative="1" as="geometry">
            <mxPoint x="400" y="450" as="sourcePoint" />
            <mxPoint x="560" y="450" as="targetPoint" />
          </mxGeometry>
        </mxCell>
        <mxCell id="fextend3" value="&amp;lt;&amp;lt;extend&amp;gt;&amp;gt;" style="endArrow=open;endSize=12;dashed=1;html=1;exitX=0;exitY=0.5;exitDx=0;exitDy=0;entryX=1;entryY=1;entryDx=0;entryDy=0;strokeColor=#000000;fontColor=#FFFFFF;" parent="1" source="fuc-calculate-gpa" target="fuc-final-grades" edge="1">
          <mxGeometry width="160" relative="1" as="geometry">
            <mxPoint x="400" y="450" as="sourcePoint" />
            <mxPoint x="560" y="450" as="targetPoint" />
          </mxGeometry>
        </mxCell>
        <mxCell id="legend-box" value="" style="rounded=0;whiteSpace=wrap;html=1;fillColor=none;strokeColor=#000000;fontColor=#0B0B0B;" parent="1" vertex="1">
          <mxGeometry x="1040" y="80" width="200" height="180" as="geometry" />
        </mxCell>
        <mxCell id="legend-title" value="Legend" style="text;html=1;strokeColor=none;fillColor=none;align=center;verticalAlign=middle;whiteSpace=wrap;rounded=0;fontSize=14;fontStyle=1;fontColor=#0B0B0B;" parent="1" vertex="1">
          <mxGeometry x="1090" y="90" width="100" height="20" as="geometry" />
        </mxCell>
        <mxCell id="legend-assoc" value="" style="endArrow=none;html=1;strokeColor=#000000;fontColor=#0B0B0B;" parent="1" edge="1">
          <mxGeometry width="50" height="50" relative="1" as="geometry">
            <mxPoint x="1060" y="130" as="sourcePoint" />
            <mxPoint x="1110" y="130" as="targetPoint" />
          </mxGeometry>
        </mxCell>
        <mxCell id="legend-assoc-text" value="Association" style="text;html=1;strokeColor=none;fillColor=none;align=left;verticalAlign=middle;whiteSpace=wrap;rounded=0;fontColor=#0B0B0B;" parent="1" vertex="1">
          <mxGeometry x="1120" y="120" width="100" height="20" as="geometry" />
        </mxCell>
        <mxCell id="legend-include" value="" style="endArrow=open;endSize=12;dashed=1;html=1;strokeColor=#000000;fontColor=#0B0B0B;" parent="1" edge="1">
          <mxGeometry width="50" height="50" relative="1" as="geometry">
            <mxPoint x="1060" y="160" as="sourcePoint" />
            <mxPoint x="1110" y="160" as="targetPoint" />
          </mxGeometry>
        </mxCell>
        <mxCell id="legend-include-text" value="&amp;lt;&amp;lt;include&amp;gt;&amp;gt;" style="text;html=1;strokeColor=none;fillColor=none;align=left;verticalAlign=middle;whiteSpace=wrap;rounded=0;fontColor=#0B0B0B;" parent="1" vertex="1">
          <mxGeometry x="1120" y="150" width="100" height="20" as="geometry" />
        </mxCell>
        <mxCell id="legend-extend" value="" style="endArrow=open;endSize=12;dashed=1;html=1;strokeColor=#000000;fontColor=#0B0B0B;" parent="1" edge="1">
          <mxGeometry width="50" height="50" relative="1" as="geometry">
            <mxPoint x="1060" y="190" as="sourcePoint" />
            <mxPoint x="1110" y="190" as="targetPoint" />
          </mxGeometry>
        </mxCell>
        <mxCell id="legend-extend-text" value="&amp;lt;&amp;lt;extend&amp;gt;&amp;gt;" style="text;html=1;strokeColor=none;fillColor=none;align=left;verticalAlign=middle;whiteSpace=wrap;rounded=0;fontColor=#0B0B0B;" parent="1" vertex="1">
          <mxGeometry x="1120" y="180" width="100" height="20" as="geometry" />
        </mxCell>
        <mxCell id="legend-boundary" value="" style="rounded=0;whiteSpace=wrap;html=1;fillColor=none;dashed=1;strokeColor=#000000;fontColor=#0B0B0B;" parent="1" vertex="1">
          <mxGeometry x="1060" y="220" width="80" height="30" as="geometry" />
        </mxCell>
        <mxCell id="legend-boundary-text" value="System Boundary" style="text;html=1;strokeColor=none;fillColor=none;align=left;verticalAlign=middle;whiteSpace=wrap;rounded=0;fontColor=#0B0B0B;" parent="1" vertex="1">
          <mxGeometry x="1150" y="220" width="110" height="30" as="geometry" />
        </mxCell>
      </root>
    </mxGraphModel>
  </diagram>
</mxfile>
